<svg width="24" height="22" viewBox="0 0 24 22" fill="none" xmlns="http://www.w3.org/2000/svg">
<path d="M4.78516 0.845703C7.12656 0.00108766 9.95203 0.630616 11.8564 3.57227L12.2764 4.21973L12.6963 3.57227C14.6118 0.618992 17.2998 0.0221462 19.4844 0.861328C21.7006 1.71272 23.4999 4.07956 23.5 7.27637C23.5 8.40333 22.9027 9.76181 21.8984 11.2295C20.9044 12.6823 19.5593 14.1742 18.168 15.5527C16.7791 16.9288 15.3564 18.1807 14.2139 19.1562C13.6418 19.6446 13.1426 20.0612 12.75 20.3926C12.5711 20.5435 12.4096 20.6803 12.2734 20.7988C12.131 20.6782 11.9617 20.5391 11.7744 20.3867C11.3636 20.0526 10.8488 19.6403 10.248 19.1494C9.05335 18.1733 7.5611 16.9207 6.10254 15.5439C4.64157 14.1649 3.22695 12.6727 2.18164 11.2197C1.12468 9.75045 0.5 8.39549 0.5 7.27637C0.50006 4.07316 2.42067 1.69887 4.78516 0.845703Z" stroke="#FFA451"/>
</svg>
