<svg version="1.2" xmlns="http://www.w3.org/2000/svg" viewBox="0 0 49 48" width="49" height="48"><defs><clipPath clipPathUnits="userSpaceOnUse" id="cp1"><path d="m13 6h24v24h-24z"/></clipPath></defs><style>.a{fill:#ffa451}.b{fill:#27214d}</style><g clip-path="url(#cp1)"><path class="a" d="m35.5 16.3q0.6 0 1.1 0.5 0.4 0.5 0.4 1.2 0 0.7-0.4 1.2-0.5 0.5-1.1 0.5h-0.2l-1.3 8.9q-0.1 0.6-0.5 1-0.5 0.4-1 0.4h-15q-0.5 0-1-0.4-0.4-0.4-0.5-1l-1.3-8.9h-0.2q-0.6 0-1.1-0.5-0.4-0.5-0.4-1.2 0-0.7 0.4-1.2 0.5-0.5 1.1-0.5zm-16.8 10.7q0.3 0 0.5-0.3 0.2-0.3 0.2-0.6l-0.4-5.6q0-0.3-0.3-0.6-0.2-0.2-0.5-0.2-0.3 0-0.5 0.3-0.2 0.3-0.2 0.6l0.4 5.6q0 0.3 0.2 0.6 0.2 0.2 0.5 0.2zm4.8-0.9v-5.5q0-0.4-0.2-0.6-0.2-0.3-0.5-0.3-0.3 0-0.5 0.3-0.3 0.2-0.3 0.6v5.5q0 0.4 0.3 0.6 0.2 0.3 0.5 0.3 0.3 0 0.5-0.3 0.2-0.2 0.2-0.6zm4.5 0v-5.5q0-0.4-0.2-0.6-0.2-0.3-0.5-0.3-0.3 0-0.5 0.3-0.3 0.2-0.3 0.6v5.5q0 0.4 0.3 0.6 0.2 0.3 0.5 0.3 0.3 0 0.5-0.3 0.2-0.2 0.2-0.6zm4.2 0.1l0.3-5.6q0.1-0.3-0.1-0.6-0.2-0.3-0.5-0.3-0.4 0-0.6 0.2-0.2 0.3-0.3 0.6l-0.3 5.6q-0.1 0.3 0.1 0.6 0.3 0.3 0.6 0.3 0.3 0 0.5-0.2 0.2-0.3 0.3-0.6zm-13.6-16.3l-1.1 5.5h-1.5l1.2-5.9q0.2-1.2 1-1.9 0.8-0.7 1.9-0.7h1.9q0-0.4 0.3-0.6 0.2-0.3 0.5-0.3h4.5q0.3 0 0.5 0.3 0.2 0.2 0.2 0.6h2q1.1 0 1.9 0.7 0.8 0.7 1 1.9l1.2 5.9h-1.5l-1.1-5.5q-0.2-0.6-0.6-1-0.4-0.3-0.9-0.3h-2q0 0.3-0.2 0.6-0.2 0.2-0.5 0.2h-4.5q-0.3 0-0.5-0.2-0.3-0.3-0.3-0.6h-1.9q-0.5 0-0.9 0.3-0.5 0.4-0.6 1z"/></g><path class="b" d="m4.5 43.8q0 0.2 0.2 0.2h0.4c0.1 0 0.2-0.1 0.2-0.1l0.8-5.2q0.1 0 0.1 0l1.8 5.3c0.1 0.1 0.2 0.1 0.2 0.1h0.2c0.1 0 0.1 0 0.2-0.1l1.8-5.3q0 0 0.1 0l0.8 5.2c0.1 0 0.1 0.1 0.2 0.1h0.4q0.2 0 0.2-0.2l-1.3-6.8c0 0-0.1-0.1-0.2-0.1h-0.1c-0.1 0-0.2 0.1-0.2 0.1l-1.9 5.5q-0.1 0-0.1 0l-2-5.5c0 0-0.1-0.1-0.2-0.1h-0.1c-0.1 0-0.2 0.1-0.2 0.1zm9.9 0.3l-1.2 2.7c-0.1 0.2 0 0.3 0.1 0.3h0.4c0.1 0 0.1-0.1 0.2-0.1l3-6.7c0.1-0.1 0-0.2-0.1-0.2h-0.4q-0.1 0-0.2 0.1l-1.4 3-1.5-3q0-0.1-0.1-0.1h-0.5q-0.2 0-0.1 0.2zm5.6-0.2c0 0.1 0.1 0.2 0.2 0.2h0.2q0.1 0 0.2-0.1v-0.3c0 0 0.5 0.5 1.2 0.5 1.1 0 1.9-0.9 1.9-2.1 0-1.2-0.8-2.1-2-2.1-0.6 0-1 0.3-1 0.3v-3c0-0.1-0.1-0.2-0.2-0.2h-0.3c-0.1 0-0.2 0.1-0.2 0.2zm0.7-1v-2c0 0 0.4-0.2 1-0.2 0.8 0 1.3 0.6 1.3 1.4 0 0.8-0.5 1.5-1.2 1.5-0.7 0-1.1-0.7-1.1-0.7zm3.8 0c0 0.8 0.5 1.3 1.2 1.3 0.7 0 1.1-0.3 1.3-0.5l0.1 0.2c0 0.1 0 0.2 0.1 0.2h0.2c0.1 0 0.2-0.1 0.2-0.2v-2.2c0-1.2-0.2-1.7-1.3-1.7-0.7 0-1.3 0.2-1.4 0.2 0 0.1-0.1 0.2-0.1 0.3l0.1 0.2q0.1 0.2 0.2 0.1c0.2-0.1 0.7-0.2 1.2-0.2 0.6 0 0.7 0.3 0.7 1.1 0 0-0.5-0.2-0.9-0.2-1 0-1.6 0.6-1.6 1.4zm0.6 0c0-0.5 0.4-0.8 1-0.8 0.4 0 0.7 0.1 0.8 0.1v0.8c-0.1 0.3-0.6 0.6-1.1 0.6-0.4 0-0.7-0.3-0.7-0.7zm3.7 0.8c0.2 0.2 0.6 0.5 1.3 0.5 0.8 0 1.4-0.6 1.4-1.1 0-0.8-0.6-1.1-1.3-1.4-0.4-0.2-0.8-0.3-0.8-0.7 0-0.1 0.2-0.4 0.6-0.4 0.4 0 0.8 0.3 0.8 0.3 0.1 0 0.2 0 0.3-0.1l0.1-0.2c0-0.1 0-0.2-0.1-0.3-0.2-0.1-0.6-0.3-1.1-0.3-0.9 0-1.3 0.6-1.3 1 0 0.7 0.6 1.1 1.2 1.3 0.6 0.3 0.9 0.5 0.9 0.8 0 0.3-0.3 0.5-0.7 0.5-0.5 0-0.9-0.4-0.9-0.4-0.1 0-0.3 0-0.3 0.1 0 0-0.1 0.2-0.1 0.2-0.1 0.1 0 0.2 0 0.2zm3.8 0.2c0 0.1 0.1 0.2 0.2 0.2h0.3c0.1 0 0.2-0.1 0.2-0.2v-1.8l2 1.9c0 0 0.1 0.1 0.2 0.1h0.5c0.2 0 0.2-0.2 0.1-0.3l-2.2-1.9 1.9-1.6c0.1 0 0.1-0.2-0.1-0.2h-0.5q-0.1 0-0.2 0.1l-1.7 1.4v-4.3c0-0.1-0.1-0.2-0.2-0.2h-0.3c-0.1 0-0.2 0.1-0.2 0.2zm4.1-1.8c0 1.1 0.7 2.1 1.9 2.1 0.7 0 1.3-0.3 1.5-0.5 0.2-0.1 0.1-0.2 0-0.3q0-0.1-0.1-0.2c-0.1-0.1-0.2 0-0.3 0-0.2 0.2-0.6 0.3-1 0.3-0.7 0-1.3-0.6-1.3-1.3h2.8c0.1 0 0.2 0 0.2-0.1 0-0.1 0-0.2 0-0.3 0-1.1-0.7-1.8-1.8-1.8-1.2 0-1.9 0.9-1.9 2.1zm0.7-0.4c0-0.6 0.6-1.1 1.2-1.1 0.6 0 1.1 0.5 1.2 1.1zm4.4 1.4c0 0.6 0.1 1.1 0.9 1.1 0.5 0 1-0.3 1.1-0.4 0.2 0 0.2-0.1 0.1-0.2l-0.1-0.3c-0.1-0.1-0.1-0.1-0.3 0-0.1 0-0.5 0.2-0.7 0.2-0.2 0-0.3-0.1-0.3-0.5v-2.3h1.1c0.1 0 0.2-0.1 0.2-0.2v-0.2c0-0.2-0.1-0.2-0.2-0.2h-1.1v-1.2c0-0.1-0.1-0.2-0.2-0.2l-0.3 0.1c-0.1 0-0.2 0.1-0.2 0.2v1.1h-0.5c-0.1 0-0.2 0-0.2 0.2v0.2c0 0.1 0.1 0.2 0.2 0.2h0.5z"/></svg>